HIERARCHY
ROOT reference
{
  OFFSET -65.3212 -1.93545 -120.338
  CHANNELS 6 Xposition Yposition Zposition Zrotation Xrotation Yrotation
  JOINT Hips
  {
    OFFSET 0 78.7191 0
    CHANNELS 6 Xposition Yposition Zposition Zrotation Xrotation Yrotation
    JOINT Chest
    {
      OFFSET 0 8.7983 -4.7612
      CHANNELS 6 Xposition Yposition Zposition Zrotation Xrotation Yrotation
      JOINT Chest2
      {
        OFFSET 0 8.0291 0.4195
        CHANNELS 6 Xposition Yposition Zposition Zrotation Xrotation Yrotation
        JOINT Chest3
        {
          OFFSET 0 9.9351 -2.2114
          CHANNELS 6 Xposition Yposition Zposition Zrotation Xrotation Yrotation
          JOINT Neck
          {
            OFFSET 0 22.3885 -0.4656
            CHANNELS 6 Xposition Yposition Zposition Zrotation Xrotation Yrotation
            JOINT Head
            {
              OFFSET -0.0001 12.643 3.4389
              CHANNELS 6 Xposition Yposition Zposition Zrotation Xrotation Yrotation
              End Site
              {
                OFFSET 0.0001 17.6655 0.5274
              }
            }
          }
          JOINT LeftCollar
          {
            OFFSET 2.2603 21.606 7.4023
            CHANNELS 6 Xposition Yposition Zposition Zrotation Xrotation Yrotation
            JOINT LeftShoulder
            {
              OFFSET 13.5163 -1.1332 -5.0146
              CHANNELS 6 Xposition Yposition Zposition Zrotation Xrotation Yrotation
              JOINT LeftElbow
              {
                OFFSET -0.0995 -28.05 -0.2431
                CHANNELS 6 Xposition Yposition Zposition Zrotation Xrotation Yrotation
                JOINT LeftWrist
                {
                  OFFSET 0.0679 -23.3996 -0.1402
                  CHANNELS 6 Xposition Yposition Zposition Zrotation Xrotation Yrotation
                  JOINT LeftFinger1
                  {
                    OFFSET 0.7932 -9.069 2.5189
                    CHANNELS 6 Xposition Yposition Zposition Zrotation Xrotation Yrotation
                    JOINT LeftFinger11
                    {
                      OFFSET -0.8272 -3.3923 0.5977
                      CHANNELS 6 Xposition Yposition Zposition Zrotation Xrotation Yrotation
                      JOINT LeftFinger12
                      {
                        OFFSET -0.5649 -2.3158 0.4082
                        CHANNELS 6 Xposition Yposition Zposition Zrotation Xrotation Yrotation
                        End Site
                        {
                          OFFSET -0.4919 -1.6479 0.2673
                        }
                      }
                    }
                  }
                  JOINT LeftFinger2
                  {
                    OFFSET 0.9159 -9.2044 0.2193
                    CHANNELS 6 Xposition Yposition Zposition Zrotation Xrotation Yrotation
                    JOINT LeftFinger21
                    {
                      OFFSET 0.0117 -4.1944 -0.0248
                      CHANNELS 6 Xposition Yposition Zposition Zrotation Xrotation Yrotation
                      JOINT LeftFinger22
                      {
                        OFFSET 0.0071 -2.3249 -0.0142
                        CHANNELS 6 Xposition Yposition Zposition Zrotation Xrotation Yrotation
                        End Site
                        {
                          OFFSET -0.1475 -2.0882 0.0028
                        }
                      }
                    }
                  }
                  JOINT LeftFinger3
                  {
                    OFFSET 0.6113 -8.7231 -2.0637
                    CHANNELS 6 Xposition Yposition Zposition Zrotation Xrotation Yrotation
                    JOINT LeftFinger31
                    {
                      OFFSET -0.1927 -3.8059 -0.2383
                      CHANNELS 6 Xposition Yposition Zposition Zrotation Xrotation Yrotation
                      JOINT LeftFinger32
                      {
                        OFFSET -0.1091 -2.1688 -0.1362
                        CHANNELS 6 Xposition Yposition Zposition Zrotation Xrotation Yrotation
                        End Site
                        {
                          OFFSET -0.2358 -1.9176 -0.0906
                        }
                      }
                    }
                  }
                  JOINT LeftFinger4
                  {
                    OFFSET -0.6151 -8.0947 -3.5641
                    CHANNELS 6 Xposition Yposition Zposition Zrotation Xrotation Yrotation
                    JOINT LeftFinger41
                    {
                      OFFSET -0.4882 -2.341 -0.6462
                      CHANNELS 6 Xposition Yposition Zposition Zrotation Xrotation Yrotation
                      JOINT LeftFinger42
                      {
                        OFFSET -0.3575 -1.7167 -0.4742
                        CHANNELS 6 Xposition Yposition Zposition Zrotation Xrotation Yrotation
                        End Site
                        {
                          OFFSET -0.4187 -1.5237 -0.3496
                        }
                      }
                    }
                  }
                  JOINT LeftFinger0
                  {
                    OFFSET -1.42 -1.8761 1.4223
                    CHANNELS 6 Xposition Yposition Zposition Zrotation Xrotation Yrotation
                    JOINT LeftFinger01
                    {
                      OFFSET -1.1471 -3.4929 2.6334
                      CHANNELS 6 Xposition Yposition Zposition Zrotation Xrotation Yrotation
                      JOINT LeftFinger02
                      {
                        OFFSET -0.823 -2.3 1.6571
                        CHANNELS 6 Xposition Yposition Zposition Zrotation Xrotation Yrotation
                        End Site
                        {
                          OFFSET -0.5822 -1.6914 1.1582
                        }
                      }
                    }
                  }
                }
              }
            }
          }
          JOINT RightCollar
          {
            OFFSET -2.2603 21.606 7.4023
            CHANNELS 6 Xposition Yposition Zposition Zrotation Xrotation Yrotation
            JOINT RightShoulder
            {
              OFFSET -13.5187 -1.1334 -5.0155
              CHANNELS 6 Xposition Yposition Zposition Zrotation Xrotation Yrotation
              JOINT RightElbow
              {
                OFFSET 0.0994 -28.0499 -0.2431
                CHANNELS 6 Xposition Yposition Zposition Zrotation Xrotation Yrotation
                JOINT RightWrist
                {
                  OFFSET -0.0679 -23.3996 -0.1402
                  CHANNELS 6 Xposition Yposition Zposition Zrotation Xrotation Yrotation
                  JOINT RightFinger1
                  {
                    OFFSET -0.7932 -9.0691 2.5189
                    CHANNELS 6 Xposition Yposition Zposition Zrotation Xrotation Yrotation
                    JOINT RightFinger11
                    {
                      OFFSET 0.8272 -3.3923 0.5977
                      CHANNELS 6 Xposition Yposition Zposition Zrotation Xrotation Yrotation
                      JOINT RightFinger12
                      {
                        OFFSET 0.565 -2.3158 0.4082
                        CHANNELS 6 Xposition Yposition Zposition Zrotation Xrotation Yrotation
                        End Site
                        {
                          OFFSET 0.4919 -1.6479 0.2673
                        }
                      }
                    }
                  }
                  JOINT RightFinger2
                  {
                    OFFSET -0.916 -9.2044 0.2193
                    CHANNELS 6 Xposition Yposition Zposition Zrotation Xrotation Yrotation
                    JOINT RightFinger21
                    {
                      OFFSET -0.0117 -4.1944 -0.0248
                      CHANNELS 6 Xposition Yposition Zposition Zrotation Xrotation Yrotation
                      JOINT RightFinger22
                      {
                        OFFSET -0.0071 -2.3249 -0.0142
                        CHANNELS 6 Xposition Yposition Zposition Zrotation Xrotation Yrotation
                        End Site
                        {
                          OFFSET 0.1475 -2.0882 0.0028
                        }
                      }
                    }
                  }
                  JOINT RightFinger3
                  {
                    OFFSET -0.6113 -8.7231 -2.0637
                    CHANNELS 6 Xposition Yposition Zposition Zrotation Xrotation Yrotation
                    JOINT RightFinger31
                    {
                      OFFSET 0.1927 -3.8059 -0.2383
                      CHANNELS 6 Xposition Yposition Zposition Zrotation Xrotation Yrotation
                      JOINT RightFinger32
                      {
                        OFFSET 0.1091 -2.1688 -0.1362
                        CHANNELS 6 Xposition Yposition Zposition Zrotation Xrotation Yrotation
                        End Site
                        {
                          OFFSET 0.2358 -1.9176 -0.0906
                        }
                      }
                    }
                  }
                  JOINT RightFinger4
                  {
                    OFFSET 0.6151 -8.0947 -3.564
                    CHANNELS 6 Xposition Yposition Zposition Zrotation Xrotation Yrotation
                    JOINT RightFinger41
                    {
                      OFFSET 0.4882 -2.341 -0.6462
                      CHANNELS 6 Xposition Yposition Zposition Zrotation Xrotation Yrotation
                      JOINT RightFinger42
                      {
                        OFFSET 0.3574 -1.7166 -0.4742
                        CHANNELS 6 Xposition Yposition Zposition Zrotation Xrotation Yrotation
                        End Site
                        {
                          OFFSET 0.4187 -1.5237 -0.3496
                        }
                      }
                    }
                  }
                  JOINT RightFinger0
                  {
                    OFFSET 1.4199 -1.8761 1.4221
                    CHANNELS 6 Xposition Yposition Zposition Zrotation Xrotation Yrotation
                    JOINT RightFinger01
                    {
                      OFFSET 1.1472 -3.4929 2.6336
                      CHANNELS 6 Xposition Yposition Zposition Zrotation Xrotation Yrotation
                      JOINT RightFinger02
                      {
                        OFFSET 0.8229 -2.3 1.6571
                        CHANNELS 6 Xposition Yposition Zposition Zrotation Xrotation Yrotation
                        End Site
                        {
                          OFFSET 0.5822 -1.6914 1.1582
                        }
                      }
                    }
                  }
                }
              }
            }
          }
        }
      }
    }
    JOINT RightHip
    {
      OFFSET -9.412 3.9771 -0.7758
      CHANNELS 6 Xposition Yposition Zposition Zrotation Xrotation Yrotation
      JOINT RightKnee
      {
        OFFSET -0.7531 -40.938 0
        CHANNELS 6 Xposition Yposition Zposition Zrotation Xrotation Yrotation
        JOINT RightAnkle
        {
          OFFSET 0 -40.1986 0
          CHANNELS 6 Xposition Yposition Zposition Zrotation Xrotation Yrotation
          JOINT RightToe
          {
            OFFSET 0 -4.4182 9.239
            CHANNELS 6 Xposition Yposition Zposition Zrotation Xrotation Yrotation
            End Site
            {
              OFFSET 0 0 6.1981
            }
          }
        }
      }
    }
    JOINT LeftHip
    {
      OFFSET 9.4119 3.9773 -0.7758
      CHANNELS 6 Xposition Yposition Zposition Zrotation Xrotation Yrotation
      JOINT LeftKnee
      {
        OFFSET 0.7532 -40.9383 0
        CHANNELS 6 Xposition Yposition Zposition Zrotation Xrotation Yrotation
        JOINT LeftAnkle
        {
          OFFSET 0 -40.1986 0
          CHANNELS 6 Xposition Yposition Zposition Zrotation Xrotation Yrotation
          JOINT LeftToe
          {
            OFFSET 0 -4.4182 9.239
            CHANNELS 6 Xposition Yposition Zposition Zrotation Xrotation Yrotation
            End Site
            {
              OFFSET 0 0 6.1981
            }
          }
        }
      }
    }
  }
}
MOTION
Frames:	4
Frame Time:	0.0333333
-13.4844 -67.6931 64.5089 0 0 -0 5.32907e-015 78.7191 0 24.6681 -43.3752 112.981 -7.10543e-015 8.7983 -4.7612 4.24107 -1.00462 -0.432589 -7.10543e-015 8.0291 0.4195 8.47645 -2.03845 -0.789882 0 9.9351 -2.2114 8.47648 -2.03847 -0.789874 -7.10543e-015 22.3885 -0.4656 -1.96095 17.7026 3.53337 -0.0001 12.643 3.4389 22.24 -3.033 11.8085 2.2603 21.606 7.4023 -2.66953 -1.71328 -30.2432 13.5163 -1.1332 -5.0146 34.7352 -12.1333 21.0863 -0.0995 -28.05 -0.2431 177.954 -42.861 -107.148 0.0679 -23.3996 -0.1402 -4.73399 -72.6457 2.91637 0.7932 -9.069 2.5189 9.67418 -9.68121 -1.60086 -0.8272 -3.3923 0.5977 -0.351168 -4.10184 -1.85076 -0.5649 -2.3158 0.4082 3.98351 -2.46375 0.298724 0.9159 -9.2044 0.2193 10.8627 -6.48 -1.47454 0.0117 -4.1944 -0.0248 -0.394866 -2.21271 0.421172 0.0071 -2.3249 -0.0142 16.3331 -9.67588 2.98439 0.6113 -8.7231 -2.0637 14.2416 -5.0676 1.15044 -0.1927 -3.8059 -0.2383 -0.413547 -2.56304 0.848796 -0.1091 -2.1688 -0.1362 16.1973 -10.4351 3.60197 -0.6151 -8.0947 -3.5641 11.2401 4.37481 1.90263 -0.4882 -2.341 -0.6462 -0.113944 -6.33278 4.54852 -0.3575 -1.7167 -0.4742 16.0515 -10.079 4.04283 -1.42 -1.8761 1.4223 -13.5568 -2.36485 -6.83339 -1.1471 -3.4929 2.6334 -5.3283 0.465166 0.257388 -0.823 -2.3 1.6571 -8.86756 -12.103 1.55941 -2.2603 21.606 7.4023 -22.1715 0.223433 1.15865 -13.5187 -1.1334 -5.0155 -109.085 -35.1614 -59.9878 0.0994 -28.0499 -0.2431 7.09655 -64.3668 -11.2366 -0.0679 -23.3996 -0.1402 -5.75455 -14.0814 -8.22106 -0.7932 -9.0691 2.5189 -3.59471 -1.9383 2.27341 0.8272 -3.3923 0.5977 6.45608 2.1957 -0.227985 0.565 -2.3158 0.4082 11.1315 3.75872 -0.545851 -0.916 -9.2044 0.2193 -4.91948 -1.50027 1.74372 -0.0117 -4.1944 -0.0248 11.6998 3.97727 -0.128144 -0.0071 -2.3249 -0.0142 -7.54984 -2.5459 -0.347723 -0.6113 -8.7231 -2.0637 -5.76725 1.52662 -0.590294 0.1927 -3.8059 -0.2383 3.46738 1.34148 0.154946 0.1091 -2.1688 -0.1362 -5.63725 -2.14903 -0.423309 0.6151 -8.0947 -3.564 -8.2079 7.73363 -2.44118 0.4882 -2.341 -0.6462 -0.0841808 -0.38986 -0.859631 0.3574 -1.7166 -0.4742 -7.47986 -2.73109 -0.812869 1.4199 -1.8761 1.4221 10.7156 -9.41574 19.1137 1.1472 -3.4929 2.6336 1.77062 -0.314174 -1.87081 0.8229 -2.3 1.6571 2.27096 -5.43858 -1.58736 -9.412 3.9771 -0.7758 -31.3545 17.6031 9.72043 -0.7531 -40.938 0 9.46732 37.2314 -4.85849 7.10543e-015 -40.1986 -7.10543e-015 8.77807 3.62386 -5.42125 7.10543e-015 -4.4182 9.239 1.99606 13.0508 -0.980761 9.4119 3.9773 -0.7758 -79.4269 -86.4708 -47.7511 0.7532 -40.9383 0 -1.48082 80.5511 0.907606 0 -40.1986 -3.55271e-015 0.819902 5.97218 -8.13563 0 -4.4182 9.239 -0.138147 1.03314 0.00126908 
-14.0993 -67.7116 64.9238 0 0 -0 5.32907e-015 78.7191 0 23.548 -43.6632 109.182 0 8.7983 -4.7612 4.03636 -0.962639 -0.582063 7.10543e-015 8.0291 0.4195 8.06452 -1.96382 -1.0951 0 9.9351 -2.2114 8.06452 -1.96384 -1.09511 0 22.3885 -0.4656 -1.78631 18.6489 5.10295 -0.0001 12.643 3.4389 22.3713 -2.95342 12.6599 2.2603 21.606 7.4023 -2.33139 -1.72582 -30.4061 13.5163 -1.1332 -5.0146 37.5096 -14.9456 22.6655 -0.0995 -28.05 -0.2431 173.843 -41.9483 -111.164 0.0679 -23.3996 -0.1402 -22.4795 -72.4412 -17.8447 0.7932 -9.069 2.5189 11.085 -11.2715 -1.3663 -0.8272 -3.3923 0.5977 -0.405202 -4.58679 -2.13309 -0.5649 -2.3158 0.4082 4.92686 -3.04193 0.39439 0.9159 -9.2044 0.2193 12.1295 -7.31364 -1.18765 0.0117 -4.1944 -0.0248 -0.476373 -2.70162 0.482021 0.0071 -2.3249 -0.0142 17.9582 -10.5562 3.42221 0.6113 -8.7231 -2.0637 15.655 -5.62749 1.43921 -0.1927 -3.8059 -0.2383 -0.492677 -3.10716 0.990212 -0.1091 -2.1688 -0.1362 17.7933 -11.3634 4.10253 -0.6151 -8.0947 -3.5641 12.6476 4.31813 2.16151 -0.4882 -2.341 -0.6462 -0.118513 -7.08613 4.94641 -0.3575 -1.7167 -0.4742 17.6738 -10.987 4.58329 -1.42 -1.8761 1.4223 -14.5606 -3.30354 -7.76288 -1.1471 -3.4929 2.6334 -5.57005 0.521967 0.234727 -0.823 -2.3 1.6571 -9.61897 -13.112 1.60291 -2.2603 21.606 7.4023 -22.0748 0.193382 2.09185 -13.5187 -1.1334 -5.0155 -109.189 -34.1397 -59.9189 0.0994 -28.0499 -0.2431 4.27863 -66.2797 -15.0878 -0.0679 -23.3996 -0.1402 -8.11461 -13.0937 -5.45377 -0.7932 -9.0691 2.5189 -4.11605 -2.49594 2.30486 0.8272 -3.3923 0.5977 5.193 1.76876 -0.163967 0.565 -2.3158 0.4082 9.97174 3.37406 -0.45513 -0.916 -9.2044 0.2193 -5.31918 -1.66552 1.83393 -0.0117 -4.1944 -0.0248 10.3485 3.52123 -0.0718813 -0.0071 -2.3249 -0.0142 -8.32208 -2.80265 -0.402081 -0.6113 -8.7231 -2.0637 -6.40308 1.34481 -0.461139 0.1927 -3.8059 -0.2383 2.86659 1.10841 0.133847 0.1091 -2.1688 -0.1362 -6.6068 -2.51299 -0.517218 0.6151 -8.0947 -3.564 -8.18495 7.85719 -2.2956 0.4882 -2.341 -0.6462 -0.117615 -0.534036 -1.14791 0.3574 -1.7166 -0.4742 -8.24986 -3.00461 -0.916346 1.4199 -1.8761 1.4221 10.9058 -9.08418 18.1326 1.1472 -3.4929 2.6336 1.78365 -0.309594 -1.88285 0.8229 -2.3 1.6571 2.5523 -6.13969 -1.77598 -9.412 3.9771 -0.7758 -32.446 14.5799 10.0583 -0.7531 -40.938 0 8.81005 36.6265 -4.28691 0 -40.1986 7.10543e-015 9.16985 4.02788 -5.09174 -7.10543e-015 -4.4182 9.239 1.93119 12.6573 -0.943698 9.4119 3.9773 -0.7758 -76.5247 -86.9507 -45.4182 0.7532 -40.9383 0 -1.57618 81.1316 0.936893 0 -40.1986 0 0.0217145 5.931 -8.59526 0 -4.4182 9.239 -0.0574754 0.430302 0.000212747 
-14.6862 -67.7834 65.2977 0 0 -0 5.32907e-015 78.7191 0 22.4196 -43.6712 105.401 7.10543e-015 8.7983 -4.7612 3.77994 -0.916316 -0.716891 0 8.0291 0.4195 7.54967 -1.87785 -1.37206 0 9.9351 -2.2114 7.54967 -1.87785 -1.37204 7.10543e-015 22.3885 -0.4656 -1.57179 19.4761 6.67637 -0.0001 12.643 3.4389 22.134 -2.72196 13.2244 2.2603 21.606 7.4023 -2.01914 -1.73265 -30.5022 13.5163 -1.1332 -5.0146 40.6562 -17.4586 24.8044 -0.0995 -28.05 -0.2431 169.98 -41.3631 -116.045 0.0679 -23.3996 -0.1402 -33.4547 -70.705 -32.0464 0.7932 -9.069 2.5189 12.0056 -12.2975 -1.20407 -0.8272 -3.3923 0.5977 -0.441509 -4.89717 -2.3219 -0.5649 -2.3158 0.4082 5.53803 -3.41515 0.461375 0.9159 -9.2044 0.2193 12.9459 -7.86061 -0.988071 0.0117 -4.1944 -0.0248 -0.528985 -3.0187 0.51541 0.0071 -2.3249 -0.0142 19.0159 -11.1191 3.71969 0.6113 -8.7231 -2.0637 16.5754 -5.9761 1.65368 -0.1927 -3.8059 -0.2383 -0.543554 -3.46088 1.07526 -0.1091 -2.1688 -0.1362 18.8333 -11.9566 4.4413 -0.6151 -8.0947 -3.5641 13.6654 4.25089 2.42288 -0.4882 -2.341 -0.6462 -0.121945 -7.57899 5.19322 -0.3575 -1.7167 -0.4742 18.6996 -11.5536 4.95074 -1.42 -1.8761 1.4223 -15.212 -4.00539 -8.72795 -1.1471 -3.4929 2.6334 -5.72569 0.558233 0.218735 -0.823 -2.3 1.6571 -10.0962 -13.7652 1.62509 -2.2603 21.606 7.4023 -22.0305 0.162126 3.05385 -13.5187 -1.1334 -5.0155 -109.738 -33.1411 -60.2836 0.0994 -28.0499 -0.2431 0.350452 -67.8704 -20.1605 -0.0679 -23.3996 -0.1402 -10.6981 -11.6115 -1.57118 -0.7932 -9.0691 2.5189 -4.62174 -3.03649 2.33439 0.8272 -3.3923 0.5977 3.96927 1.35364 -0.11091 0.565 -2.3158 0.4082 8.8829 3.01101 -0.377022 -0.916 -9.2044 0.2193 -5.70155 -1.823 1.91945 -0.0117 -4.1944 -0.0248 9.03943 3.07795 -0.0276534 -0.0071 -2.3249 -0.0142 -9.09472 -3.05865 -0.459914 -0.6113 -8.7231 -2.0637 -7.01937 1.16933 -0.338477 0.1927 -3.8059 -0.2383 2.28413 0.882693 0.111111 0.1091 -2.1688 -0.1362 -7.54752 -2.8643 -0.614159 0.6151 -8.0947 -3.564 -8.16231 7.98084 -2.15003 0.4882 -2.341 -0.6462 -0.148983 -0.67401 -1.41655 0.3574 -1.7166 -0.4742 -9.02055 -3.27669 -1.02354 1.4199 -1.8761 1.4221 11.0996 -8.7713 17.1954 1.1472 -3.4929 2.6336 1.79561 -0.305362 -1.89387 0.8229 -2.3 1.6571 2.82318 -6.82022 -1.95579 -9.412 3.9771 -0.7758 -33.6471 11.6726 9.88588 -0.7531 -40.938 3.55271e-015 7.67175 35.2307 -3.44108 0 -40.1986 7.10543e-015 9.15218 4.40088 -5.06451 -7.10543e-015 -4.4182 9.239 1.85085 12.167 -0.898257 9.4119 3.9773 -0.7758 -70.7541 -87.2438 -40.4323 0.7532 -40.9383 0 -1.62918 81.4513 0.89598 0 -40.1986 -3.55271e-015 -0.149079 5.42 -8.74386 3.55271e-015 -4.4182 9.239 -0.0322674 0.241717 6.70502e-005 
-15.1952 -67.8766 65.6666 0 0 -0 5.32907e-015 78.7191 0 21.4106 -43.5515 101.798 0 8.7983 -4.7612 3.51573 -0.936766 -0.78201 0 8.0291 0.4195 7.01982 -1.91963 -1.50544 0 9.9351 -2.2114 7.01984 -1.91964 -1.50542 0 22.3885 -0.4656 -1.34815 20.69 7.69119 -0.0001 12.643 3.4389 21.51 -2.53677 13.5264 2.2603 21.606 7.4023 -1.53705 -1.72961 -30.494 13.5163 -1.1332 -5.0146 43.849 -19.8213 26.9503 -0.0995 -28.05 -0.2431 166.227 -41.3798 -120.892 0.0679 -23.3996 -0.1402 -40.041 -67.9935 -41.6729 0.7932 -9.069 2.5189 12.3343 -12.6616 -1.14438 -0.8272 -3.3923 0.5977 -0.454616 -5.00678 -2.39011 -0.5649 -2.3158 0.4082 5.75541 -3.54762 0.486166 0.9159 -9.2044 0.2193 13.2243 -8.07434 -0.907542 0.0117 -4.1944 -0.0248 -0.547667 -3.13149 0.52617 0.0071 -2.3249 -0.0142 19.393 -11.3178 3.82808 0.6113 -8.7231 -2.0637 16.9087 -6.08414 1.76172 -0.1927 -3.8059 -0.2383 -0.56157 -3.58685 1.10429 -0.1091 -2.1688 -0.1362 19.2043 -12.1659 4.56449 -0.6151 -8.0947 -3.5641 14.22 4.16878 2.67526 -0.4882 -2.341 -0.6462 -0.123355 -7.7551 5.27891 -0.3575 -1.7167 -0.4742 19.0723 -11.7562 5.08339 -1.42 -1.8761 1.4223 -15.4506 -4.42378 -9.70741 -1.1471 -3.4929 2.6334 -5.78072 0.571011 0.212821 -0.823 -2.3 1.6571 -10.266 -13.9974 1.63165 -2.2603 21.606 7.4023 -22.1491 0.137033 3.77908 -13.5187 -1.1334 -5.0155 -110.477 -31.8898 -60.4417 0.0994 -28.0499 -0.2431 -2.87747 -68.5904 -23.6679 -0.0679 -23.3996 -0.1402 -13.0265 -10.9371 -0.17544 -0.7932 -9.0691 2.5189 -5.11017 -3.55823 2.36221 0.8272 -3.3923 0.5977 2.78874 0.952002 -0.0681304 0.565 -2.3158 0.4082 7.7949 2.64657 -0.305856 -0.916 -9.2044 0.2193 -6.07063 -1.97478 2.0011 -0.0117 -4.1944 -0.0248 7.77686 2.64929 0.0053998 -0.0071 -2.3249 -0.0142 -9.82929 -3.30116 -0.518094 -0.6113 -8.7231 -2.0637 -7.61413 1.00055 -0.222332 0.1927 -3.8059 -0.2383 1.72188 0.665056 0.0869588 0.1091 -2.1688 -0.1362 -8.45626 -3.20174 -0.713243 0.6151 -8.0947 -3.564 -8.13998 8.10455 -2.00446 0.4882 -2.341 -0.6462 -0.180266 -0.818274 -1.68305 0.3574 -1.7166 -0.4742 -9.73894 -3.52877 -1.12668 1.4199 -1.8761 1.4221 11.2954 -8.47299 16.2915 1.1472 -3.4929 2.6336 1.80761 -0.30129 -1.90487 0.8229 -2.3 1.6571 3.08297 -7.47784 -2.1265 -9.412 3.9771 -0.7758 -34.7246 9.07492 9.44668 -0.7531 -40.938 0 6.22921 33.0746 -2.43477 7.10543e-015 -40.1986 0 9.05636 4.89777 -5.09678 0 -4.4182 9.239 1.85245 12.1767 -0.899158 9.4119 3.9773 -0.7758 -63.6791 -87.3834 -34.3527 0.7532 -40.9383 -7.10543e-015 -1.69716 81.8929 0.85574 -3.55271e-015 -40.1986 1.77636e-015 0.0845568 4.9097 -9.04036 3.55271e-015 -4.4182 9.239 -0.0538349 0.40285 0.000195147 
